# xmcd
#
# Track frame offsets:
#	150
#	17336
#	27162
#	37008
#	47466
#	61202
#	79798
#	89946
#	99701
#	110923
#	126321
#	143549
#	155130
#	168365
#	182139
#	196607
#	210247
#	225583
#	242739
#	259924
#	277918
#
# Disc length: 3858 seconds
#
# Revision: 0
# Processed by: cddbd v1.5.2PL0 Copyright (c) Steve Scherf et al.
# Submitted via: EasyCDDAExtractor 16.0.8.1
#
DISCID=1d0f1015
DTITLE=A hatvanas évek slágereri - Csavard fel a szőnyeget
DYEAR=2014
DGENRE=Retro
TTITLE0=Aki melletted él
TTITLE1=Például te
TTITLE2=Csak egy tánc volt
TTITLE3=Csavard fel a szőnyeget
TTITLE4=A mi utcánk
TTITLE5=Kislány a zongoránál
TTITLE6=Hol jár az eszem
TTITLE7=Mama
TTITLE8=TAlán egy perc alatt
TTITLE9=Rejtély
TTITLE10=Fehér sziklák
TTITLE11=Rozsda lepi már az emlékeimet
TTITLE12=Ugye te is akarod
TTITLE13=Ne hagyd el soha
TTITLE14=Minden ember boldog akar lenni
TTITLE15=Ha én szél lehetnék
TTITLE16=Szegény bolond
TTITLE17=A festő és a fecskék
TTITLE18=Sárga rózsa
TTITLE19=Valaki kell nekem is
TTITLE20=Süt a nap
EXTD=
EXTT0=
EXTT1=
EXTT2=
EXTT3=
EXTT4=
EXTT5=
EXTT6=
EXTT7=
EXTT8=
EXTT9=
EXTT10=
EXTT11=
EXTT12=
EXTT13=
EXTT14=
EXTT15=
EXTT16=
EXTT17=
EXTT18=
EXTT19=
EXTT20=
PLAYORDER=
